<?xml version="1.0" standalone="no"?><!DOCTYPE svg PUBLIC "-//W3C//DTD SVG 1.1//EN" "http://www.w3.org/Graphics/SVG/1.1/DTD/svg11.dtd"><svg t="1599297852055" class="icon" viewBox="0 0 1024 1024" version="1.1" xmlns="http://www.w3.org/2000/svg" p-id="4621" xmlns:xlink="http://www.w3.org/1999/xlink" width="32" height="32"><defs><style type="text/css"></style></defs><path d="M497 119.9c114.903 0 218.928 46.574 294.227 121.873C866.527 317.073 913.1 421.097 913.1 536c0 114.903-46.574 218.928-121.873 294.227C715.927 905.527 611.903 952.1 497 952.1c-114.903 0-218.928-46.574-294.227-121.873C127.473 754.927 80.9 650.903 80.9 536c0-114.903 46.574-218.928 121.873-294.227 74.546-74.546 177.247-120.939 290.783-121.859L497 119.9z m0 137.911c-16.435 0-31.322 6.62-42.153 17.452-10.67 10.67-17.44 25.472-17.634 42.134v278.55l0.012 1.022 0.017 0.668c0.494 16.02 7.284 30.457 17.986 40.91 10.48 10.235 24.708 16.652 40.432 16.998-19.152 0.353-36.457 8.26-49.064 20.866-12.899 12.9-20.877 30.72-20.877 50.403 0 19.684 7.978 37.505 20.877 50.404 12.9 12.9 30.72 20.878 50.404 20.878 19.684 0 37.504-7.979 50.404-20.878 12.899-12.9 20.877-30.72 20.877-50.404 0-19.683-7.978-37.504-20.877-50.403-12.607-12.607-29.914-20.513-49.066-20.866 15.904-0.348 30.278-6.9 40.815-17.437 10.67-10.67 17.44-25.471 17.634-42.134V317.425l-0.012-1.023-0.017-0.668c-0.494-16.02-7.284-30.457-17.986-40.91-10.777-10.525-25.517-17.013-41.772-17.013z" fill="#d81e06" p-id="4622"></path></svg>